<mxfile host="app.diagrams.net" modified="2024-03-14T01:31:26.235Z" agent="Mozilla/5.0 (Windows NT 10.0; Win64; x64) AppleWebKit/537.36 (KHTML, like Gecko) Chrome/122.0.0.0 Safari/537.36" etag="PbYcnkH2Mz2D_fTlKfVT" version="23.1.6" type="device">
  <diagram name="Page-1" id="VoMKM7CauxFjWXZyKZag">
    <mxGraphModel dx="1050" dy="557" grid="1" gridSize="10" guides="1" tooltips="1" connect="1" arrows="1" fold="1" page="1" pageScale="1" pageWidth="850" pageHeight="1100" math="0" shadow="0">
      <root>
        <mxCell id="0" />
        <mxCell id="1" parent="0" />
        <mxCell id="RWhUkMQu-ApYj6Z3aAw_-1" value="" style="rounded=0;whiteSpace=wrap;html=1;" vertex="1" parent="1">
          <mxGeometry x="120" y="80" width="640" height="440" as="geometry" />
        </mxCell>
        <mxCell id="RWhUkMQu-ApYj6Z3aAw_-6" style="edgeStyle=orthogonalEdgeStyle;rounded=0;orthogonalLoop=1;jettySize=auto;html=1;exitX=1;exitY=0.5;exitDx=0;exitDy=0;" edge="1" parent="1" source="RWhUkMQu-ApYj6Z3aAw_-2" target="RWhUkMQu-ApYj6Z3aAw_-3">
          <mxGeometry relative="1" as="geometry" />
        </mxCell>
        <mxCell id="RWhUkMQu-ApYj6Z3aAw_-2" value="GitHUB Repository" style="rounded=1;whiteSpace=wrap;html=1;" vertex="1" parent="1">
          <mxGeometry x="140" y="120" width="200" height="60" as="geometry" />
        </mxCell>
        <mxCell id="RWhUkMQu-ApYj6Z3aAw_-3" value="" style="rounded=1;whiteSpace=wrap;html=1;" vertex="1" parent="1">
          <mxGeometry x="250" y="220" width="390" height="230" as="geometry" />
        </mxCell>
        <mxCell id="RWhUkMQu-ApYj6Z3aAw_-7" value="HOST (Port 80)" style="text;strokeColor=none;align=center;fillColor=none;html=1;verticalAlign=middle;whiteSpace=wrap;rounded=0;" vertex="1" parent="1">
          <mxGeometry x="415" y="230" width="60" height="30" as="geometry" />
        </mxCell>
        <mxCell id="RWhUkMQu-ApYj6Z3aAw_-8" value="Clone" style="text;strokeColor=none;align=center;fillColor=none;html=1;verticalAlign=middle;whiteSpace=wrap;rounded=0;" vertex="1" parent="1">
          <mxGeometry x="358" y="120" width="60" height="30" as="geometry" />
        </mxCell>
        <mxCell id="RWhUkMQu-ApYj6Z3aAw_-9" value="" style="rounded=1;whiteSpace=wrap;html=1;" vertex="1" parent="1">
          <mxGeometry x="305" y="272.5" width="280" height="125" as="geometry" />
        </mxCell>
        <mxCell id="RWhUkMQu-ApYj6Z3aAw_-10" value="" style="image;sketch=0;aspect=fixed;html=1;points=[];align=center;fontSize=12;image=img/lib/mscae/VM_Linux.svg;" vertex="1" parent="1">
          <mxGeometry x="380" y="230" width="32.61" height="30" as="geometry" />
        </mxCell>
        <mxCell id="RWhUkMQu-ApYj6Z3aAw_-11" value="" style="image;sketch=0;aspect=fixed;html=1;points=[];align=center;fontSize=12;image=img/lib/mscae/Docker.svg;" vertex="1" parent="1">
          <mxGeometry x="315" y="314.5" width="50" height="41" as="geometry" />
        </mxCell>
        <mxCell id="RWhUkMQu-ApYj6Z3aAw_-12" value="" style="image;sketch=0;aspect=fixed;html=1;points=[];align=center;fontSize=12;image=img/lib/mscae/Azure_Repos.svg;" vertex="1" parent="1">
          <mxGeometry x="150" y="134.03" width="28.75" height="31.95" as="geometry" />
        </mxCell>
        <mxCell id="RWhUkMQu-ApYj6Z3aAw_-16" value="" style="rounded=1;whiteSpace=wrap;html=1;" vertex="1" parent="1">
          <mxGeometry x="370" y="300" width="185" height="70" as="geometry" />
        </mxCell>
        <mxCell id="RWhUkMQu-ApYj6Z3aAw_-17" value="" style="sketch=0;aspect=fixed;pointerEvents=1;shadow=0;dashed=0;html=1;strokeColor=none;labelPosition=center;verticalLabelPosition=bottom;verticalAlign=top;align=center;fillColor=#00188D;shape=mxgraph.mscae.enterprise.web_server" vertex="1" parent="1">
          <mxGeometry x="382" y="306.71" width="43" height="56.58" as="geometry" />
        </mxCell>
      </root>
    </mxGraphModel>
  </diagram>
</mxfile>
